<svg xmlns="http://www.w3.org/2000/svg" viewBox="0 0 1200 630" width="1200" height="630">
  <defs>
    <linearGradient id="bg" x1="0%" y1="0%" x2="100%" y2="100%">
      <stop offset="0%" stop-color="#0f1115"/>
      <stop offset="100%" stop-color="#1a1b23"/>
    </linearGradient>
    <linearGradient id="amber" x1="0%" y1="0%" x2="100%" y2="100%">
      <stop offset="0%" stop-color="#e8bd8a"/>
      <stop offset="100%" stop-color="#c4955f"/>
    </linearGradient>
  </defs>

  <!-- Background -->
  <rect width="1200" height="630" fill="url(#bg)"/>

  <!-- Subtle grid background -->
  <g stroke="#2a2b35" stroke-width="1" opacity="0.4">
    <line x1="0" y1="157" x2="1200" y2="157"/>
    <line x1="0" y1="314" x2="1200" y2="314"/>
    <line x1="0" y1="471" x2="1200" y2="471"/>
    <line x1="300" y1="0" x2="300" y2="630"/>
    <line x1="600" y1="0" x2="600" y2="630"/>
    <line x1="900" y1="0" x2="900" y2="630"/>
  </g>

  <!-- Logo on the left -->
  <g transform="translate(80, 195) scale(0.94)">
    <g fill="none" stroke="url(#amber)" stroke-width="14" stroke-linecap="round" stroke-linejoin="round">
      <rect x="26" y="36" width="72" height="56" rx="10"/>
      <rect x="26" y="164" width="72" height="56" rx="10"/>
      <path d="M 98 64 Q 140 64 155 100" stroke-width="11"/>
      <path d="M 98 192 Q 140 192 155 156" stroke-width="11"/>
      <ellipse cx="195" cy="96" rx="42" ry="16"/>
      <path d="M 153 96 L 153 160 A 42 16 0 0 0 237 160 L 237 96"/>
      <path d="M 153 128 A 42 16 0 0 0 237 128" stroke-width="10" opacity="0.55"/>
    </g>
  </g>

  <!-- Text -->
  <g font-family="-apple-system, BlinkMacSystemFont, 'Segoe UI', Roboto, sans-serif" fill="#e8e4e0">
    <!-- Badge -->
    <rect x="400" y="175" width="270" height="36" rx="18" fill="#d4a574" fill-opacity="0.15"/>
    <text x="535" y="200" font-size="16" font-weight="600" fill="#d4a574" text-anchor="middle" letter-spacing="1">
      PRODUCTIVITY DATA LAYER
    </text>

    <!-- Title -->
    <text x="400" y="275" font-size="64" font-weight="700" letter-spacing="-1">
      Daily Agent MCP
    </text>

    <!-- Subtitle -->
    <text x="400" y="335" font-size="28" fill="#9a9590" font-weight="400">
      Your productivity data.
    </text>
    <text x="400" y="375" font-size="28" fill="#9a9590" font-weight="400">
      Your agent. Your rules.
    </text>

    <!-- Description -->
    <text x="400" y="435" font-size="18" fill="#9a9590" font-weight="400">
      Postgres + typed MCP for OpenClaw.
    </text>
    <text x="400" y="462" font-size="18" fill="#9a9590" font-weight="400">
      Self-hosted. Single-user. Tailscale-gated.
    </text>

    <!-- Domain at bottom -->
    <text x="400" y="540" font-size="20" font-weight="600" fill="#d4a574">
      dailyagent.dev
    </text>
  </g>
</svg>
